<?xml version="1.0" standalone="no"?>
<!DOCTYPE svg PUBLIC "-//W3C//DTD SVG 20010904//EN"
 "http://www.w3.org/TR/2001/REC-SVG-20010904/DTD/svg10.dtd">
<svg version="1.0" xmlns="http://www.w3.org/2000/svg"
 width="760.000000pt" height="760.000000pt" viewBox="0 0 760.000000 760.000000"
 preserveAspectRatio="xMidYMid meet">
<metadata>
Created by potrace 1.14, written by Peter Selinger 2001-2017
</metadata>
<g transform="translate(0.000000,760.000000) scale(0.100000,-0.100000)"
fill="#000000" stroke="none">
<path d="M2900 7596 c0 -2 6 -9 14 -15 10 -9 16 -8 26 4 11 13 8 15 -14 15
-14 0 -26 -2 -26 -4z"/>
<path d="M3618 7413 c-69 -23 -61 -37 16 -29 59 7 65 5 92 -18 28 -25 29 -26
10 -41 -15 -11 -17 -18 -9 -26 17 -17 78 -2 112 26 37 32 43 31 86 -6 45 -40
64 -29 41 25 -19 45 -38 53 -90 37 -61 -18 -78 -15 -106 19 -21 25 -32 30 -65
29 -22 0 -61 -7 -87 -16z"/>
<path d="M2785 7289 c-253 -27 -354 -43 -333 -51 9 -4 29 -3 45 1 52 15 129
12 143 -4 17 -21 36 -19 53 5 15 21 94 40 170 40 20 0 37 5 37 10 0 11 -9 11
-115 -1z"/>
<path d="M4638 6258 c-33 -9 -36 -12 -28 -29 8 -14 20 -18 45 -16 39 2 44 11
18 26 -16 9 -15 10 5 11 13 0 20 4 17 10 -7 11 -7 11 -57 -2z"/>
<path d="M4655 6190 c3 -5 8 -10 11 -10 2 0 4 5 4 10 0 6 -5 10 -11 10 -5 0
-7 -4 -4 -10z"/>
<path d="M3983 6093 c9 -2 25 -2 35 0 9 3 1 5 -18 5 -19 0 -27 -2 -17 -5z"/>
<path d="M3895 6070 c-8 -13 45 -13 65 0 11 7 6 10 -22 10 -20 0 -40 -4 -43
-10z"/>
<path d="M3621 6061 c-7 -5 -9 -11 -5 -14 14 -8 84 -4 84 5 0 4 -6 8 -12 8 -7
0 -22 3 -33 5 -11 3 -26 1 -34 -4z"/>
<path d="M3300 6045 c0 -8 2 -15 4 -15 2 0 6 7 10 15 3 8 1 15 -4 15 -6 0 -10
-7 -10 -15z"/>
<path d="M4748 6003 c7 -3 16 -2 19 1 4 3 -2 6 -13 5 -11 0 -14 -3 -6 -6z"/>
<path d="M3047 5959 c-9 -6 -26 -7 -37 -4 -24 8 -128 -16 -134 -30 -2 -6 16
-11 43 -12 25 -1 88 -5 139 -10 52 -5 95 -6 97 -3 6 10 -20 37 -52 53 -37 20
-33 19 -56 6z"/>
<path d="M3650 5419 c0 -43 -3 -45 -40 -24 -26 15 -120 21 -120 7 0 -4 17 -18
38 -30 l37 -22 -66 0 c-39 0 -89 -8 -124 -20 -73 -25 -100 -25 -136 1 -33 23
-36 19 -13 -16 16 -25 16 -25 -13 -25 -16 0 -46 9 -68 20 -21 11 -41 18 -43
15 -2 -2 5 -20 16 -39 l21 -36 -27 -6 c-45 -9 -68 -21 -104 -52 -18 -17 -47
-32 -63 -34 l-30 -4 25 -11 c14 -7 20 -12 14 -12 -25 -2 -117 -97 -155 -162
-40 -66 -70 -96 -114 -114 -18 -7 -18 -8 8 -17 18 -7 27 -16 25 -27 -3 -13
-14 -16 -56 -14 -29 1 -52 0 -52 -3 0 -10 57 -89 77 -107 11 -9 37 -26 59 -36
l39 -20 -40 -16 c-72 -30 -134 -76 -165 -122 -42 -64 -38 -77 11 -31 23 22 52
44 66 49 31 12 133 12 133 0 0 -17 -100 -119 -147 -150 l-46 -31 46 0 c26 0
47 -2 47 -5 0 -3 -9 -15 -20 -27 -28 -30 -25 -38 13 -38 32 0 33 -1 35 -42 5
-95 24 -180 42 -185 13 -4 41 -85 122 -354 l105 -349 -39 -41 c-21 -22 -38
-50 -38 -62 0 -23 35 -107 44 -107 3 0 3 20 0 44 -6 40 -4 46 20 61 15 10 28
16 30 14 5 -6 90 -326 126 -476 29 -121 31 -137 20 -188 -10 -47 -14 -55 -30
-50 -17 5 -129 25 -140 25 -15 -1 32 -20 61 -25 77 -12 89 -17 89 -33 0 -37
-81 -363 -113 -457 l-34 -100 -79 -8 c-43 -4 -101 -9 -129 -11 -27 -2 -63 -9
-78 -15 -33 -13 -60 -15 -53 -3 2 4 -10 6 -28 4 -21 -2 -49 4 -75 17 -37 19
-40 24 -27 36 19 19 40 19 32 0 -6 -18 -5 -18 29 -5 19 7 24 7 19 -2 -5 -8 -2
-9 9 -5 10 4 31 4 47 0 25 -4 28 -8 18 -20 -10 -12 -7 -13 18 -7 16 4 35 13
42 20 10 11 9 16 -7 26 -15 9 -17 15 -9 25 8 10 4 12 -23 7 -19 -3 -39 -7 -45
-9 -7 -2 -10 4 -7 15 4 16 8 17 23 7 14 -8 25 -8 44 2 31 17 56 9 50 -17 -6
-21 20 -49 31 -32 3 5 16 10 28 9 21 0 21 -1 2 -10 -16 -7 -14 -8 10 -4 17 3
58 8 92 12 62 6 63 6 69 40 4 19 4 37 0 40 -3 4 -6 -5 -6 -18 l-1 -24 -12 23
c-10 17 -15 20 -25 10 -8 -8 -15 -9 -23 -1 -12 12 -379 6 -393 -7 -5 -5 -9
-20 -8 -34 0 -14 -3 -26 -7 -27 -29 -3 -45 -10 -61 -24 -10 -9 -22 -15 -27
-12 -4 3 -47 2 -95 -2 -69 -5 -89 -4 -93 7 -6 16 -30 11 -30 -5 0 -6 -3 -15
-7 -19 -5 -4 -8 0 -8 9 0 10 -5 14 -15 11 -8 -4 -15 -1 -15 5 0 6 5 11 11 11
5 0 7 5 4 11 -4 6 -19 7 -36 4 -18 -4 -29 -3 -29 4 0 6 7 11 15 11 8 0 15 5
15 11 0 6 -7 8 -16 5 -9 -3 -20 -6 -25 -6 -5 0 -9 -9 -9 -20 0 -11 -5 -20 -11
-20 -7 0 -8 7 -4 18 4 9 8 23 8 30 0 8 17 12 47 12 57 0 110 10 110 20 0 8
-127 15 -200 12 -25 -1 -81 2 -125 8 -44 6 -109 12 -145 15 -150 9 -192 14
-205 25 -33 27 -197 47 -435 51 -96 2 -179 6 -185 9 -5 3 -39 6 -75 7 -98 3
-102 3 -123 15 -14 7 -22 7 -27 -2 -5 -8 -13 -9 -26 -3 -11 6 -46 9 -79 8 -33
-2 -82 1 -110 6 -27 5 -79 10 -114 13 -35 2 -67 9 -71 16 -5 8 -9 5 -13 -9 -7
-30 -74 -29 -106 0 -17 16 -26 18 -34 10 -14 -14 -64 -14 -72 -1 -4 6 -11 8
-16 5 -5 -4 -9 -2 -9 4 0 5 -8 12 -17 14 -10 3 -6 4 10 4 15 -1 27 -5 27 -9 0
-4 15 -7 33 -7 21 1 25 3 12 6 -11 3 -24 9 -30 14 -5 5 -24 9 -42 9 -46 0 -43
26 5 46 20 9 44 20 53 24 16 8 109 14 164 10 25 -1 27 -3 11 -9 -16 -6 -13
-10 22 -24 58 -23 105 -23 100 1 -3 13 -13 17 -51 17 -80 0 -52 14 36 17 47 2
101 -3 127 -10 26 -8 80 -12 130 -10 47 1 90 -1 96 -5 7 -4 61 -4 120 0 61 4
98 9 84 13 -44 10 110 32 212 29 51 -1 102 0 113 3 11 3 35 -1 54 -8 22 -9 38
-11 50 -4 14 8 13 9 -6 10 -15 0 -23 6 -23 16 0 15 9 16 78 10 172 -16 242
-18 242 -8 0 5 -21 13 -47 18 -46 7 -47 8 -18 15 24 5 25 7 8 8 -16 1 -23 7
-23 21 0 12 -7 20 -16 20 -8 0 -22 7 -30 15 -9 8 -26 15 -40 15 -13 0 -24 5
-24 10 0 6 -11 16 -25 22 -14 6 -25 19 -25 29 0 9 -6 20 -12 23 -7 3 -3 3 9 1
28 -8 41 14 18 31 -15 11 -23 11 -47 -2 -16 -9 -36 -13 -42 -11 -10 4 -12 -6
-10 -39 l3 -44 -39 0 c-22 0 -40 4 -40 10 0 5 -15 9 -34 7 -19 -1 -32 -5 -30
-8 7 -12 -21 -27 -49 -27 -32 1 -28 11 6 13 17 1 23 9 25 36 2 18 8 37 14 40
6 4 7 12 3 19 -6 9 -9 9 -15 0 -6 -9 -12 -9 -30 0 -18 10 -24 9 -36 -7 -8 -10
-13 -13 -14 -5 0 20 -78 16 -83 -5 -3 -10 -3 2 -1 27 4 39 3 42 -7 23 -16 -30
-43 -29 -57 2 -7 14 -12 28 -12 30 0 3 30 5 68 6 88 1 57 14 -68 28 -52 6
-110 13 -127 17 -22 4 -33 2 -33 -5 0 -6 17 -11 40 -11 22 0 40 -4 40 -10 0
-5 -9 -10 -20 -10 -11 0 -20 -4 -20 -10 0 -5 9 -10 19 -10 24 0 30 -8 35 -54
6 -41 21 -72 33 -68 4 2 9 -4 11 -12 5 -22 -34 -21 -42 0 -6 15 -9 14 -31 -6
-22 -21 -25 -21 -41 -6 -15 15 -18 15 -40 1 -21 -13 -27 -14 -46 -1 -18 11
-75 22 -137 26 -2 0 -1 8 2 18 3 15 -1 19 -22 19 -14 0 -44 7 -66 16 -52 21
-145 23 -145 3 0 -8 8 -17 17 -19 10 -3 -4 -5 -31 -6 -26 0 -70 7 -97 16 -39
14 -49 22 -49 40 0 16 -6 23 -19 23 -14 0 -20 -10 -25 -41 -4 -23 -9 -40 -11
-37 -5 4 -13 43 -14 66 -1 8 -20 12 -63 12 -45 0 -59 -3 -48 -10 12 -8 11 -10
-7 -10 l-23 0 0 -195 c0 -149 3 -195 13 -195 8 0 7 -4 -3 -11 -12 -8 -7 -9 18
-6 17 2 32 0 32 -5 0 -4 -13 -8 -30 -8 l-30 0 0 -1100 0 -1100 3800 0 3800 0
0 1031 0 1031 -40 -5 c-30 -3 -43 0 -51 12 -7 12 -12 13 -15 4 -8 -18 -24 -16
-24 2 0 9 -9 15 -25 15 -14 0 -25 -4 -25 -10 0 -5 -19 -14 -42 -21 -37 -9 -52
-8 -110 12 -37 12 -68 27 -68 33 0 7 -30 11 -82 11 -74 0 -87 3 -123 28 -22
15 -52 27 -67 27 -33 0 -44 16 -26 37 11 14 11 16 -2 11 -8 -2 -30 6 -49 19
-19 13 -46 26 -60 30 -14 3 -41 17 -59 30 -27 20 -32 30 -28 49 6 21 3 24 -21
26 -16 0 -40 0 -55 -1 -16 -1 -28 3 -28 8 0 6 -13 11 -30 11 -32 0 -40 -14
-14 -24 14 -5 13 -9 -8 -26 -14 -10 -37 -20 -51 -22 -14 -2 -29 -7 -33 -11
-13 -13 -24 -7 -24 12 0 11 5 23 11 26 5 4 8 12 6 18 -6 18 19 37 48 37 15 0
33 7 41 15 14 13 12 15 -14 15 -16 0 -35 6 -41 14 -7 8 -33 17 -59 20 -71 8
-72 9 -72 18 0 5 -9 4 -20 -2 -11 -6 -55 -12 -98 -14 -84 -4 -160 -20 -207
-45 -16 -8 -32 -16 -35 -16 -3 -1 -18 -7 -33 -13 -35 -15 -50 -15 -63 -2 -7 7
-26 2 -58 -15 -48 -26 -71 -31 -79 -17 -2 4 -2 1 -1 -6 3 -9 -9 -12 -41 -11
-25 2 -45 7 -45 13 0 5 -3 6 -7 3 -3 -4 -17 0 -30 8 -26 18 -133 10 -133 -9 0
-20 -36 -43 -76 -50 -81 -13 -91 -13 -115 0 l-24 13 25 1 c24 1 25 1 5 16 -16
12 -17 16 -6 24 11 6 4 10 -25 15 -84 13 -86 14 -78 37 5 17 3 20 -10 15 -10
-4 -16 -1 -16 8 0 9 -9 15 -21 15 -19 0 -21 4 -15 39 3 22 9 46 12 55 7 19
-71 93 -108 101 -15 4 -32 13 -38 21 -8 8 -21 12 -36 8 -19 -5 -24 -2 -24 12
-1 17 -2 17 -13 3 -13 -17 -67 -31 -132 -34 -22 -1 -50 -3 -63 -4 -15 -1 -27
-11 -36 -31 -7 -17 -16 -27 -21 -23 -4 5 -5 -2 -2 -14 3 -13 1 -23 -4 -23 -5
0 -9 6 -9 13 0 19 -27 53 -36 45 -4 -5 0 -16 9 -25 8 -10 21 -46 28 -80 7 -34
16 -60 21 -57 4 3 23 -9 40 -25 23 -21 43 -31 65 -31 17 0 35 -4 38 -10 3 -5
23 -10 45 -10 24 0 40 -5 44 -15 3 -8 16 -15 28 -15 l23 0 -24 -13 c-32 -16
-42 -42 -12 -32 11 3 21 3 21 -2 0 -12 -69 -40 -120 -47 -100 -15 -150 -30
-150 -43 0 -7 -4 -13 -10 -13 -6 0 -10 53 -10 140 0 155 -8 191 -64 284 -19
31 -41 87 -51 124 -26 102 -61 211 -124 382 -32 85 -66 187 -76 225 -27 106
-26 105 -99 105 -57 0 -65 3 -80 25 -19 29 -59 51 -127 71 -68 20 -82 46 -87
153 -4 81 -2 90 27 145 28 51 31 67 31 142 l0 83 46 35 c30 23 61 37 92 41
135 19 142 27 142 175 0 150 0 150 143 150 l98 0 127 -65 c148 -75 287 -157
319 -187 35 -32 31 -92 -11 -181 -48 -101 -67 -206 -64 -347 l3 -115 20 35
c12 19 34 64 50 100 29 63 30 71 35 257 3 105 8 194 11 197 11 11 36 -4 46
-27 6 -12 38 -56 71 -97 62 -76 125 -126 197 -156 l40 -16 -42 36 c-23 20 -58
63 -78 95 -40 66 -95 121 -153 150 -22 11 -57 37 -79 58 -22 21 -135 91 -251
156 -176 99 -219 119 -264 123 -54 6 -178 -7 -210 -21 -13 -5 -18 -3 -18 10 0
9 -14 28 -31 43 -31 26 -32 27 -26 98 l5 72 -60 12 c-81 16 -124 55 -133 125
l-7 50 27 -25 27 -25 -7 63 c-7 59 -6 62 14 62 30 0 28 42 -4 71 -28 27 -32
41 -10 33 8 -4 23 0 32 7 14 13 13 15 -13 20 -16 4 -46 7 -66 8 l-38 1 6 63 6
62 -21 -29 c-23 -34 -69 -62 -81 -49 -4 4 -4 42 1 83 7 60 6 83 -7 118 -18 48
-36 57 -27 12 5 -26 3 -30 -17 -30 -28 0 -97 69 -106 106 -5 19 -9 22 -15 12
-5 -7 -9 -23 -9 -35 0 -31 -12 -29 -54 11 l-36 33 0 -38z m-767 -1198 c11 -11
-1 -111 -14 -111 -5 0 -9 6 -9 13 0 7 -13 34 -30 60 -16 26 -30 50 -30 54 0 9
72 -5 83 -16z m77 -99 c0 -5 -7 -17 -15 -28 -21 -28 -19 -31 25 -37 47 -6 70
-22 70 -48 0 -26 11 -24 43 11 31 32 77 41 77 15 0 -9 7 -32 16 -53 15 -36 16
-36 27 -14 10 22 41 30 52 12 3 -5 22 6 42 26 34 34 39 36 90 32 77 -7 95 -28
104 -120 4 -40 8 -115 8 -166 l1 -92 -32 -20 c-18 -11 -46 -20 -63 -20 -55 0
-107 -13 -112 -27 -3 -8 5 -25 17 -38 l22 -24 -21 -30 c-12 -16 -36 -60 -53
-98 -30 -64 -32 -75 -38 -223 -5 -148 -19 -222 -33 -174 -42 143 -77 289 -73
300 7 19 35 18 42 -1 10 -25 23 -17 29 19 14 72 -19 95 -86 60 -17 -8 -32 -14
-33 -12 -1 2 -28 86 -60 188 -32 102 -82 257 -110 345 l-52 161 21 18 c42 36
95 58 95 38z m-2019 -1489 c1 -5 3 -18 4 -30 1 -12 5 -28 8 -36 4 -11 0 -13
-13 -10 -21 6 -28 26 -22 61 4 21 20 31 23 15z m151 -85 c-9 -9 -15 -9 -24 0
-9 9 -7 12 12 12 19 0 21 -3 12 -12z m-992 -12 c0 -3 -4 -8 -10 -11 -5 -3 -10
-1 -10 4 0 6 5 11 10 11 6 0 10 -2 10 -4z m996 -41 c18 -14 17 -14 -13 -15
-25 0 -31 4 -27 15 8 19 15 19 40 0z m-913 -12 c-7 -2 -21 -2 -30 0 -10 3 -4
5 12 5 17 0 24 -2 18 -5z m294 -328 c13 -4 20 -11 18 -15 -3 -5 -18 -2 -33 6
-15 7 -56 15 -92 15 -61 2 -62 2 -20 8 42 6 72 2 127 -14z m100 -11 c-3 -3
-12 -4 -19 -1 -8 3 -5 6 6 6 11 1 17 -2 13 -5z m158 -4 c3 -5 1 -10 -4 -10 -6
0 -11 5 -11 10 0 6 2 10 4 10 3 0 8 -4 11 -10z m-190 -10 c19 -8 19 -9 -2 -9
-12 -1 -25 4 -28 9 -7 12 2 12 30 0z m85 6 c0 -11 -19 -15 -25 -6 -3 5 1 10 9
10 9 0 16 -2 16 -4z m50 -16 c0 -5 -7 -10 -15 -10 -8 0 -15 5 -15 10 0 6 7 10
15 10 8 0 15 -4 15 -10z m-40 -10 c0 -9 61 -32 67 -26 4 3 -1 6 -10 6 -10 0
-17 5 -17 11 0 11 49 9 105 -5 11 -2 30 -5 43 -5 45 -2 20 -16 -28 -16 -27 0
-50 3 -50 8 0 4 -7 7 -15 7 -18 0 -20 -20 -2 -21 65 -6 124 -5 135 4 8 6 12 6
12 -2 0 -6 5 -11 11 -11 5 0 7 5 4 10 -3 6 -2 10 4 10 5 0 11 -10 13 -22 2
-18 11 -24 34 -26 29 -3 31 -1 27 25 -3 22 -2 25 6 12 7 -11 33 -19 73 -24 56
-6 60 -8 38 -17 -42 -17 -149 -17 -189 -1 -20 9 -78 19 -130 23 -52 5 -97 12
-100 17 -3 5 -25 15 -48 21 -55 16 -65 33 -19 30 20 -2 36 -5 36 -8z m314 -55
c3 -9 0 -15 -9 -15 -16 0 -27 14 -18 24 10 10 21 7 27 -9z m186 -30 c0 -8 7
-15 16 -15 8 0 12 -5 8 -11 -4 -6 1 -9 13 -7 11 2 28 -4 38 -12 11 -9 16 -10
11 -2 -4 7 -2 12 7 12 8 0 17 -7 21 -15 3 -8 10 -15 15 -15 6 0 8 7 4 16 -4
12 -2 15 8 12 8 -3 14 -15 13 -27 0 -11 5 -21 13 -21 7 0 13 7 13 15 0 17 25
20 35 5 4 -6 33 -9 66 -8 64 2 97 -14 69 -33 -12 -8 -9 -10 12 -6 15 2 25 0
22 -4 -3 -5 0 -9 6 -9 6 0 8 -4 5 -10 -4 -6 6 -11 22 -11 22 -1 23 -3 7 -6
-12 -2 -49 3 -82 11 -69 18 -118 20 -127 6 -10 -16 -28 -11 -21 6 5 12 1 14
-15 9 -12 -4 -19 -3 -16 2 3 4 -6 14 -20 20 -21 10 -24 10 -19 -3 8 -21 3 -18
-40 21 -21 19 -44 35 -51 35 -24 0 -62 31 -56 46 7 19 23 18 23 -1z m110 -16
c0 -5 -4 -9 -10 -9 -5 0 -10 7 -10 16 0 8 5 12 10 9 6 -3 10 -10 10 -16z m45
1 c3 -5 1 -10 -4 -10 -6 0 -11 5 -11 10 0 6 2 10 4 10 3 0 8 -4 11 -10z m1675
-15 c0 -9 -16 -14 -49 -17 -44 -3 -48 -1 -40 15 5 9 15 17 22 17 7 0 6 -4 -3
-10 -12 -8 -11 -10 6 -10 12 0 27 7 34 15 14 16 30 11 30 -10z m-928 -2 c-18
-3 -23 -10 -19 -24 3 -10 1 -19 -4 -19 -5 0 -9 11 -9 25 0 21 4 25 28 24 24
-2 25 -2 4 -6z m558 0 c-8 -3 -18 -11 -22 -17 -4 -6 -10 -7 -15 -3 -9 10 16
27 37 26 13 -1 13 -1 0 -6z m-668 -32 c4 -3 -24 -6 -63 -7 -38 0 -64 3 -57 7
7 4 16 5 20 3 4 -3 8 0 8 6 0 12 78 5 92 -9z m48 -1 c0 -5 -7 -10 -15 -10 -8
0 -15 5 -15 10 0 6 7 10 15 10 8 0 15 -4 15 -10z m80 -14 c0 -15 27 -14 73 3
20 8 23 6 21 -12 -1 -12 -3 -24 -3 -26 -1 -2 -8 3 -17 10 -14 11 -19 10 -35
-10 -15 -18 -19 -19 -19 -7 0 22 -17 20 -30 -4 -6 -11 -16 -17 -25 -14 -21 9
-19 25 3 18 14 -5 15 -4 2 5 -19 14 -30 14 -30 0 0 -15 -30 -43 -37 -35 -4 3
2 13 13 22 19 15 19 16 -1 9 -54 -18 -86 -18 -100 1 -11 15 -17 16 -23 6 -5
-7 -27 -13 -49 -15 -25 -1 -39 -6 -36 -13 4 -12 -50 -20 -192 -29 -103 -6
-104 0 -2 10 73 7 81 15 20 22 -44 5 -51 9 -35 25 8 8 12 9 12 1 0 -13 75 -12
87 1 4 5 -9 7 -29 4 -20 -2 -34 0 -32 4 7 12 102 10 109 -2 3 -5 1 -10 -6 -10
-7 0 -4 -7 7 -15 25 -19 40 -19 24 0 -10 12 -10 15 3 15 9 0 20 6 24 13 10 15
55 18 66 3 6 -8 10 -8 14 2 6 14 55 16 102 2 19 -5 39 -6 45 -1 6 5 21 7 34 5
14 -3 22 1 22 11 0 8 5 15 10 15 6 0 10 -6 10 -14z m-657 -63 c-7 -2 -21 -2
-30 0 -10 3 -4 5 12 5 17 0 24 -2 18 -5z m-22 -31 c-7 -2 -18 1 -23 6 -8 8 -4
9 13 5 13 -4 18 -8 10 -11z"/>
<path d="M1008 2033 c12 -2 30 -2 40 0 9 3 -1 5 -23 4 -22 0 -30 -2 -17 -4z"/>
<path d="M1448 1913 c7 -3 16 -2 19 1 4 3 -2 6 -13 5 -11 0 -14 -3 -6 -6z"/>
<path d="M1780 1910 c0 -5 5 -10 10 -10 6 0 10 5 10 10 0 6 -4 10 -10 10 -5 0
-10 -4 -10 -10z"/>
<path d="M1895 1910 c3 -5 8 -10 11 -10 2 0 4 5 4 10 0 6 -5 10 -11 10 -5 0
-7 -4 -4 -10z"/>
<path d="M1938 1913 c7 -3 16 -2 19 1 4 3 -2 6 -13 5 -11 0 -14 -3 -6 -6z"/>
<path d="M1078 2793 c7 -3 16 -2 19 1 4 3 -2 6 -13 5 -11 0 -14 -3 -6 -6z"/>
<path d="M746 2705 c-4 -10 1 -15 14 -15 11 0 20 7 20 15 0 8 -6 15 -14 15 -8
0 -16 -7 -20 -15z"/>
<path d="M2760 2712 c0 -4 13 -7 30 -6 22 1 31 -3 36 -19 6 -18 7 -19 16 -4 5
10 7 21 4 25 -7 11 -86 15 -86 4z"/>
<path d="M277 2704 c-8 -8 1 -24 14 -24 5 0 9 7 9 15 0 15 -12 20 -23 9z"/>
<path d="M2938 2703 c7 -3 16 -2 19 1 4 3 -2 6 -13 5 -11 0 -14 -3 -6 -6z"/>
<path d="M2825 2660 c-35 -7 -33 -8 22 -7 34 1 59 5 57 9 -6 9 -21 8 -79 -2z"/>
<path d="M258 2653 c-21 -5 -24 -23 -4 -23 22 0 46 11 46 21 0 9 -13 10 -42 2z"/>
<path d="M418 2643 c12 -2 32 -2 45 0 12 2 2 4 -23 4 -25 0 -35 -2 -22 -4z"/>
<path d="M845 2626 c-17 -12 -17 -13 8 -18 21 -4 27 -1 27 13 0 22 -10 24 -35
5z"/>
<path d="M4700 2631 c0 -7 -4 -10 -9 -6 -5 3 -12 1 -15 -4 -4 -5 -2 -12 3 -15
11 -7 36 22 27 31 -3 3 -6 1 -6 -6z"/>
<path d="M322 2618 c6 -18 28 -21 28 -4 0 9 -7 16 -16 16 -9 0 -14 -5 -12 -12z"/>
<path d="M590 2600 c0 -5 5 -10 10 -10 6 0 10 5 10 10 0 6 -4 10 -10 10 -5 0
-10 -4 -10 -10z"/>
<path d="M288 2583 c6 -2 18 -2 25 0 6 3 1 5 -13 5 -14 0 -19 -2 -12 -5z"/>
<path d="M2038 2583 c7 -3 16 -2 19 1 4 3 -2 6 -13 5 -11 0 -14 -3 -6 -6z"/>
<path d="M1928 2573 c6 -2 18 -2 25 0 6 3 1 5 -13 5 -14 0 -19 -2 -12 -5z"/>
<path d="M2088 2573 c12 -2 30 -2 40 0 9 3 -1 5 -23 4 -22 0 -30 -2 -17 -4z"/>
<path d="M2920 2566 c0 -2 9 -6 20 -9 11 -3 18 -1 14 4 -5 9 -34 13 -34 5z"/>
<path d="M5215 2550 c-17 -19 -17 -20 1 -20 10 0 27 7 37 14 16 12 16 14 1 20
-21 8 -18 9 -39 -14z"/>
<path d="M755 2550 c3 -5 10 -10 16 -10 5 0 9 5 9 10 0 6 -7 10 -16 10 -8 0
-12 -4 -9 -10z"/>
<path d="M828 2553 c6 -2 18 -2 25 0 6 3 1 5 -13 5 -14 0 -19 -2 -12 -5z"/>
<path d="M2116 2551 c5 -5 23 -11 39 -13 17 -3 24 -3 18 -1 -7 3 -13 9 -13 14
0 5 -12 9 -27 9 -16 0 -23 -4 -17 -9z"/>
<path d="M2210 2533 c0 -9 131 -36 138 -28 4 4 -51 20 -106 31 -18 4 -32 2
-32 -3z"/>
<path d="M5820 2440 c0 -5 5 -10 10 -10 6 0 10 5 10 10 0 6 -4 10 -10 10 -5 0
-10 -4 -10 -10z"/>
<path d="M2710 2425 c-8 -9 -8 -15 -2 -15 12 0 26 19 19 26 -2 2 -10 -2 -17
-11z"/>
<path d="M2670 2422 c0 -5 -9 -12 -20 -15 -21 -5 -29 -51 -10 -62 6 -3 10 2
10 12 1 16 2 16 12 -2 15 -26 30 -36 46 -30 7 3 24 -3 38 -12 14 -9 38 -18 52
-19 15 -2 47 -8 72 -13 55 -12 90 -14 90 -3 0 13 -72 47 -94 45 -14 -2 -10 3
12 12 17 8 32 16 32 18 0 1 -18 1 -39 -1 -31 -3 -39 -7 -34 -20 4 -13 3 -14
-5 -3 -8 11 -11 11 -16 0 -3 -8 -4 -5 -1 7 5 19 2 20 -52 17 -38 -2 -59 1 -65
9 -6 10 -8 10 -8 1 0 -7 -4 -13 -10 -13 -14 0 -12 58 2 62 9 3 9 6 0 12 -7 4
-12 3 -12 -2z m125 -92 c3 -6 -1 -7 -9 -4 -18 7 -21 14 -7 14 6 0 13 -4 16
-10z"/>
<path d="M5776 2404 c-11 -7 -16 -17 -13 -21 4 -4 15 1 24 10 22 21 14 30 -11
11z"/>
<path d="M1775 2400 c-3 -5 -1 -10 4 -10 6 0 11 -5 11 -11 0 -6 -11 -8 -27 -5
-16 3 -34 2 -42 -3 -10 -6 4 -11 45 -16 32 -3 75 -12 94 -20 60 -24 189 -55
227 -55 45 0 35 12 -27 33 -32 11 -45 20 -45 33 0 11 -6 18 -12 17 -7 -2 -13
5 -13 16 0 15 -11 19 -67 24 -97 10 -141 9 -148 -3z"/>
<path d="M5690 2370 c0 -5 9 -10 20 -10 11 0 20 5 20 10 0 6 -9 10 -20 10 -11
0 -20 -4 -20 -10z"/>
<path d="M3071 2344 c0 -11 3 -14 6 -6 3 7 2 16 -1 19 -3 4 -6 -2 -5 -13z"/>
<path d="M3061 2284 c0 -11 3 -14 6 -6 3 7 2 16 -1 19 -3 4 -6 -2 -5 -13z"/>
<path d="M360 2231 c0 -12 56 -34 72 -28 9 3 6 7 -7 12 -11 3 -28 11 -37 16
-22 11 -28 11 -28 0z"/>
<path d="M335 2220 c-3 -5 -1 -10 4 -10 6 0 11 5 11 10 0 6 -2 10 -4 10 -3 0
-8 -4 -11 -10z"/>
<path d="M230 2200 c-11 -7 -7 -10 17 -10 17 0 35 5 38 10 8 13 -35 13 -55 0z"/>
<path d="M7158 2163 c7 -3 16 -2 19 1 4 3 -2 6 -13 5 -11 0 -14 -3 -6 -6z"/>
<path d="M7400 2161 c-15 -5 23 -8 90 -8 73 -1 104 2 85 7 -38 10 -143 10
-175 1z"/>
<path d="M2156 1991 c3 -3 22 -6 42 -6 30 0 36 -3 34 -17 -2 -10 2 -18 9 -18
6 0 9 8 6 20 -4 15 0 20 16 20 18 0 19 -2 7 -10 -13 -8 -13 -10 1 -10 9 0 19
7 23 15 4 12 -7 14 -69 13 -41 -1 -72 -4 -69 -7z"/>
<path d="M2315 1980 c-3 -5 -1 -10 4 -10 6 0 11 5 11 10 0 6 -2 10 -4 10 -3 0
-8 -4 -11 -10z"/>
<path d="M2398 1983 c7 -3 16 -2 19 1 4 3 -2 6 -13 5 -11 0 -14 -3 -6 -6z"/>
<path d="M2190 1970 c0 -5 5 -10 10 -10 6 0 10 5 10 10 0 6 -4 10 -10 10 -5 0
-10 -4 -10 -10z"/>
<path d="M2808 1933 c7 -3 16 -2 19 1 4 3 -2 6 -13 5 -11 0 -14 -3 -6 -6z"/>
</g>
</svg>
